<svg id="visual" viewBox="0 0 900 600" width="900" height="600" xmlns="http://www.w3.org/2000/svg" xmlns:xlink="http://www.w3.org/1999/xlink" version="1.1"><rect x="0" y="0" width="900" height="600" fill="#ffffff"></rect><path d="M0 448L21.5 455.8C43 463.7 86 479.3 128.8 467.5C171.7 455.7 214.3 416.3 257.2 418.5C300 420.7 343 464.3 385.8 478C428.7 491.7 471.3 475.3 514.2 461.7C557 448 600 437 642.8 443.5C685.7 450 728.3 474 771.2 470.2C814 466.3 857 434.7 878.5 418.8L900 403L900 601L878.5 601C857 601 814 601 771.2 601C728.3 601 685.7 601 642.8 601C600 601 557 601 514.2 601C471.3 601 428.7 601 385.8 601C343 601 300 601 257.2 601C214.3 601 171.7 601 128.8 601C86 601 43 601 21.5 601L0 601Z" fill="#FF8F9C" stroke-linecap="round" stroke-linejoin="miter"></path></svg>