<svg id="visual" viewBox="0 0 960 540" width="960" height="540" xmlns="http://www.w3.org/2000/svg" xmlns:xlink="http://www.w3.org/1999/xlink" version="1.1"><rect width="960" height="540" fill="#ffffff"></rect><g><g transform="translate(720 478)"><path d="M0 -95.5L82.7 -47.8L82.7 47.8L0 95.5L-82.7 47.8L-82.7 -47.8Z" fill="#FFCC00"></path></g><g transform="translate(217 466)"><path d="M0 -50L43.3 -25L43.3 25L0 50L-43.3 25L-43.3 -25Z" fill="#FFCC00"></path></g><g transform="translate(80 328)"><path d="M0 -75L65 -37.5L65 37.5L0 75L-65 37.5L-65 -37.5Z" fill="#FFCC00"></path></g><g transform="translate(374 244)"><path d="M0 -75L65 -37.5L65 37.5L0 75L-65 37.5L-65 -37.5Z" fill="#FFCC00"></path></g></g></svg>