<svg id="visual" viewBox="0 0 900 600" width="900" height="600" xmlns="http://www.w3.org/2000/svg" xmlns:xlink="http://www.w3.org/1999/xlink" version="1.1"><rect x="0" y="0" width="900" height="600" fill="#fff"></rect><path d="M0 436L21.5 425.5C43 415 86 394 128.8 391.2C171.7 388.3 214.3 403.7 257.2 406.3C300 409 343 399 385.8 395.3C428.7 391.7 471.3 394.3 514.2 392.5C557 390.7 600 384.3 642.8 378C685.7 371.7 728.3 365.3 771.2 373C814 380.7 857 402.3 878.5 413.2L900 424L900 601L878.5 601C857 601 814 601 771.2 601C728.3 601 685.7 601 642.8 601C600 601 557 601 514.2 601C471.3 601 428.7 601 385.8 601C343 601 300 601 257.2 601C214.3 601 171.7 601 128.8 601C86 601 43 601 21.5 601L0 601Z" fill="#fa7268"></path><path d="M0 474L21.5 468.8C43 463.7 86 453.3 128.8 452.5C171.7 451.7 214.3 460.3 257.2 452C300 443.7 343 418.3 385.8 419.2C428.7 420 471.3 447 514.2 452.5C557 458 600 442 642.8 434C685.7 426 728.3 426 771.2 423.3C814 420.7 857 415.3 878.5 412.7L900 410L900 601L878.5 601C857 601 814 601 771.2 601C728.3 601 685.7 601 642.8 601C600 601 557 601 514.2 601C471.3 601 428.7 601 385.8 601C343 601 300 601 257.2 601C214.3 601 171.7 601 128.8 601C86 601 43 601 21.5 601L0 601Z" fill="#ef5f67"></path><path d="M0 490L21.5 482.8C43 475.7 86 461.3 128.8 456.3C171.7 451.3 214.3 455.7 257.2 461.2C300 466.7 343 473.3 385.8 473.3C428.7 473.3 471.3 466.7 514.2 467C557 467.3 600 474.7 642.8 479.2C685.7 483.7 728.3 485.3 771.2 489.3C814 493.3 857 499.7 878.5 502.8L900 506L900 601L878.5 601C857 601 814 601 771.2 601C728.3 601 685.7 601 642.8 601C600 601 557 601 514.2 601C471.3 601 428.7 601 385.8 601C343 601 300 601 257.2 601C214.3 601 171.7 601 128.8 601C86 601 43 601 21.5 601L0 601Z" fill="#e34c67"></path><path d="M0 485L21.5 484.7C43 484.3 86 483.7 128.8 490C171.7 496.3 214.3 509.7 257.2 516.8C300 524 343 525 385.8 521.8C428.7 518.7 471.3 511.3 514.2 513.3C557 515.3 600 526.7 642.8 529C685.7 531.3 728.3 524.7 771.2 517C814 509.3 857 500.7 878.5 496.3L900 492L900 601L878.5 601C857 601 814 601 771.2 601C728.3 601 685.7 601 642.8 601C600 601 557 601 514.2 601C471.3 601 428.7 601 385.8 601C343 601 300 601 257.2 601C214.3 601 171.7 601 128.8 601C86 601 43 601 21.5 601L0 601Z" fill="#d53867"></path><path d="M0 542L21.5 544.7C43 547.3 86 552.7 128.8 552C171.7 551.3 214.3 544.7 257.2 546.5C300 548.3 343 558.7 385.8 562.7C428.7 566.7 471.3 564.3 514.2 560.3C557 556.3 600 550.7 642.8 552.3C685.7 554 728.3 563 771.2 566.5C814 570 857 568 878.5 567L900 566L900 601L878.5 601C857 601 814 601 771.2 601C728.3 601 685.7 601 642.8 601C600 601 557 601 514.2 601C471.3 601 428.7 601 385.8 601C343 601 300 601 257.2 601C214.3 601 171.7 601 128.8 601C86 601 43 601 21.5 601L0 601Z" fill="#c62368"></path></svg>